<svg id="Calque_1" data-name="Calque 1" xmlns="http://www.w3.org/2000/svg" viewBox="0 0 1280 150.73"><defs><style>.cls-1{fill:#dc5549;}</style></defs><title>Plan de travail 1</title><rect class="cls-1" width="1280" height="6"/><rect class="cls-1" y="68.32" width="1100" height="1"/><rect class="cls-1" x="247" y="87.24" width="505" height="4"/><rect class="cls-1" x="134" y="102.32" width="1146" height="7"/><rect class="cls-1" x="99" y="142.11" width="653" height="2"/><g id="shapes"><rect class="cls-1" x="245.33" y="62.27" width="12.92" height="12.87" rx="6.44" ry="6.44" transform="translate(24.96 197.79) rotate(-44.91)"/><rect class="cls-1" x="708" y="140.12" width="6.01" height="5.98" rx="2.99" ry="2.99" transform="translate(106.39 543.67) rotate(-44.91)"/><rect class="cls-1" x="332" y="122" width="22" height="21.92"/><rect class="cls-1" x="152.71" y="129.15" width="13.29" height="14"/><rect class="cls-1" x="99" y="60" width="9" height="9"/><rect class="cls-1" x="592" y="69" width="11" height="11"/></g><g id="random_letter"><path class="cls-1" d="M316.2,91h4.16l2.76,4.5a13.74,13.74,0,0,1,1.13,2.13h.13a10.21,10.21,0,0,1-.3-2.85L324,91h4.16v12H324l-3-4.72a13.85,13.85,0,0,1-.83-1.56h-.13a14.31,14.31,0,0,1,.23,2.21l.05,4.07H316.2Z"/><path class="cls-1" d="M527.69,75.53H523l-3.62-5.62v5.62h-3.8V60.9h5.9a4.52,4.52,0,0,1,3.6,1.29,4.74,4.74,0,0,1,1.25,3.22,4.34,4.34,0,0,1-1.34,3.25,3.79,3.79,0,0,1-1.87.88ZM520,67.46a2.68,2.68,0,0,0,1.62-.39,1.77,1.77,0,0,0,0-2.85,2.68,2.68,0,0,0-1.62-.39h-.7v3.64Z"/><path class="cls-1" d="M468.63,138.35h3.49v-6.14h4.63v6.14h3.62v-6.48H485V143.8H464V131.87h4.63Z"/><path class="cls-1" d="M457.64,138.37h6.55V143l-12,0,0-21h5.45Z"/><path class="cls-1" d="M358.65,91h4.46l1.4,4.89a9.61,9.61,0,0,1,.27,1.4h.11a5.68,5.68,0,0,1,.23-1.4l1.4-4.89H371l2,12h-4.18l-.54-5.36a11.73,11.73,0,0,1-.07-1.18H368a6.47,6.47,0,0,1-.23,1L366,102.92h-2.55l-1.6-5.24a6,6,0,0,1-.23-1.31h-.13c0,.54,0,.74,0,1l-.59,5.59h-4.21Z"/><path class="cls-1" d="M358.65,91h4.46l1.4,4.89a9.61,9.61,0,0,1,.27,1.4h.11a5.68,5.68,0,0,1,.23-1.4l1.4-4.89H371l2,12h-4.18l-.54-5.36a11.73,11.73,0,0,1-.07-1.18H368a6.47,6.47,0,0,1-.23,1L366,102.92h-2.55l-1.6-5.24a6,6,0,0,1-.23-1.31h-.13c0,.54,0,.74,0,1l-.59,5.59h-4.21Z"/><path class="cls-1" d="M686.39,57.3l1,1.83a4.93,4.93,0,0,1,.26.81h.09a3.48,3.48,0,0,1,.28-.81l.9-1.83h4.81L690,62.77,694.2,69h-4.84l-1.42-2.65a3.14,3.14,0,0,1-.16-.56h-.12a2.94,2.94,0,0,1-.25.65L686,69h-4.84l4.09-6.23-3.68-5.47Z"/><path class="cls-1" d="M568.79,136.28a8.44,8.44,0,0,1,2.32,5.89,8.57,8.57,0,0,1-3,6.54,9,9,0,0,1-6,2,8.59,8.59,0,0,1-5.81-15.13,9.21,9.21,0,0,1,5.89-2A8.66,8.66,0,0,1,568.79,136.28Zm-11.12,5.81a4.54,4.54,0,1,0,4.54-4.46A4.53,4.53,0,0,0,557.67,142.09Z"/><path class="cls-1" d="M735.58,115.13c0,1.75,0,2.09.44,2.73a2.52,2.52,0,0,0,2.23,1.17,2.6,2.6,0,0,0,2.32-1.24c.34-.6.41-1.06.41-2.66v-8.29h4v8.84c0,2.25-.39,3.47-1.49,4.71a7.6,7.6,0,0,1-10.75-.14c-.8-1.08-1.1-2.32-1.1-4.57v-8.84h4Z"/><path class="cls-1" d="M345.37,83.46a2.95,2.95,0,1,1-2.95-2.95A2.94,2.94,0,0,1,345.37,83.46ZM345,104H339.8V89.16H345Z"/><path class="cls-1" d="M184.08,84l-1.27,3.21h-5.06l7.08-18.46h5.23L197,87.23h-5.12L190.69,84Zm3.35-9.55-2,5.89h4Z"/><path class="cls-1" d="M398.19,60.8l.71-1.8h2.84l-4,10.35h-2.93L390.94,59h2.87l.67,1.8Zm-1.88,5.35,1.13-3.31h-2.23Z"/></g><g id="title"><path d="M258.7,135.65l-2.78,7H244.84l15.49-40.35h11.43l15.18,40.35H275.76l-2.6-7ZM266,114.78l-4.42,12.89h8.71Z"/><path d="M421.06,91.15h15.88l9.67,14,9.28-14H472l-19.18,26.62v24.55H439.55V117.78Z"/><path d="M651.73,112.49a10.51,10.51,0,0,0-6.68-3c-2.5-.11-4.47,1.3-4.55,3.27a2.61,2.61,0,0,0,.87,2c1.15,1,1.5,1.2,6.09,2.76,6.82,2.32,9.55,5.65,9.3,11.55-.19,4.53-1.71,7.92-4.48,10.13a17.56,17.56,0,0,1-11.65,3.27,24.42,24.42,0,0,1-13.57-5l4.76-8.15c3,2.87,5.9,4.31,8.94,4.43s5.07-1.34,5.17-3.66c.09-2.14-1.24-3.21-6-4.85-4.35-1.5-6-2.28-7.43-3.53-2-1.82-3-4.48-2.82-8,.34-8,6-13.17,14.08-12.83a27.58,27.58,0,0,1,12.43,3.75Z"/><path d="M112.28,142.61H99.47V93.24h20.35c5.77,0,9.18,1.11,12.36,4.14s4.81,7,4.81,12.21c0,4.81-1.41,9.1-4,12-2.74,3.11-6.81,4.59-12.73,4.59h-8Zm4.22-26.72c4.88,0,7.11-1.92,7.11-6.14s-2.29-6.22-7-6.22h-4.29v12.36Z"/></g></svg>