<svg id="Calque_1" xmlns="http://www.w3.org/2000/svg" viewBox="0 0 50 50"><style>.st0{fill:#FF0844;}</style><path class="st0" d="M36.2 21.1H25.7v-3c1.3-.2 2.2-1.3 2.2-2.6 0-1.5-1.2-2.7-2.7-2.7-1.5 0-2.7 1.2-2.7 2.7 0 1.3 1 2.4 2.2 2.6v3H14.3c-1.9 0-3.5 1.6-3.5 3.5v21.9c0 1.9 1.6 3.5 3.5 3.5h21.8c1.9 0 3.5-1.5 3.6-3.5V24.6c0-2-1.5-3.5-3.5-3.5zm-12.7-5.6c0-.9.8-1.7 1.7-1.7s1.7.8 1.7 1.7-.8 1.7-1.7 1.7-1.7-.8-1.7-1.7zM36.1 49H14.3c-1.4 0-2.5-1.1-2.5-2.5V24.6c0-1.4 1.1-2.5 2.5-2.5h21.9c1.4 0 2.5 1.1 2.5 2.5v21.9c-.1 1.4-1.2 2.5-2.6 2.5zM16.1 4c.1 0 .2 0 .3-.1C18.9 2 21.9 1 25.1 1c3 0 6.1 1 8.6 2.8.2.2.5.1.7-.1.2-.2.1-.5-.1-.7-2.7-1.9-5.9-3-9.2-3-3.4 0-6.6 1.1-9.3 3.1-.2.2-.3.5-.1.7.1.1.2.2.4.2z"/><path class="st0" d="M32.3 6.4c-2-1.6-4.6-2.5-7.2-2.5-2.8 0-5.4.9-7.4 2.6-.1.1-.2.3-.2.4 0 .1 0 .3.1.4.1.1.2.2.4.2.1 0 .2 0 .3-.1C20.1 5.8 22.6 5 25.1 5c2.4 0 4.7.8 6.6 2.3.2.2.5.1.7-.1.1-.1.1-.3.1-.4 0-.1-.1-.3-.2-.4zM19.9 10.7c-.2.2-.2.5 0 .7.1.1.2.1.4.1s.3 0 .4-.1c1.2-1.2 2.8-1.9 4.4-1.9 1.6 0 3 .6 4.2 1.7.2.2.5.2.7 0 .2-.2.2-.5 0-.7-1.4-1.3-3-1.9-4.8-1.9-2 0-3.9.8-5.3 2.1z"/></svg>