<svg id="Calque_1" xmlns="http://www.w3.org/2000/svg" viewBox="0 0 50 50"><style>.st0{fill:#FF0844;}</style><path class="st0" d="M46.9 14.3H26.2v-.5c0-1.3 0-2.1-.3-2.9-1-2.1-3.5-2.1-3.6-2.1H11.7c-1.6 0-2.9-1.3-2.9-2.9 0-.3-.3-.6-.6-.6s-.6.3-.6.6c0 2.3 1.9 4.1 4.1 4.1h10.5s1.9.1 2.5 1.4c.2.5.2 1.2.2 2.3v.5H3.1c-1.7 0-3.1 1.4-3.1 3.1v24.2c0 1.7 1.4 3.1 3.1 3.1h43.8c1.7 0 3.1-1.4 3.1-3.1V17.4c0-1.7-1.4-3.1-3.1-3.1zm1.9 27.3c0 1-.8 1.9-1.9 1.9H3.1c-1 0-1.9-.8-1.9-1.9V17.4c0-1 .8-1.9 1.9-1.9h43.8c1 0 1.9.8 1.9 1.9v24.2z"/><path class="st0" d="M36.6 35.2H13.2c-1 0-1.9.8-1.9 1.9v.5c0 1 .8 1.9 1.9 1.9h23.4c1 0 1.9-.8 1.9-1.9v-.5c0-1-.9-1.9-1.9-1.9zm.6 2.4c0 .3-.3.6-.6.6H13.2c-.3 0-.6-.3-.6-.6v-.5c0-.3.3-.6.6-.6h23.4c.3 0 .6.3.6.6v.5zM8.5 19.9H7.4c-1 0-1.9.8-1.9 1.9v1.1c0 1 .8 1.9 1.9 1.9h1.1c1 0 1.9-.8 1.9-1.9v-1.1c-.1-1.1-.9-1.9-1.9-1.9zm.6 2.9c0 .3-.3.6-.6.6H7.4c-.3 0-.6-.3-.6-.6v-1.1c0-.3.3-.6.6-.6h1.1c.3 0 .6.3.6.6v1.1zM13.1 24.7h1.1c1 0 1.9-.8 1.9-1.9v-1.1c0-1-.8-1.9-1.9-1.9h-1.1c-1 0-1.9.8-1.9 1.9v1.1c.1 1 .9 1.9 1.9 1.9zm-.6-2.9c0-.3.3-.6.6-.6h1.1c.3 0 .6.3.6.6v1.1c0 .3-.3.6-.6.6h-1.1c-.3 0-.6-.3-.6-.6v-1.1zM18.8 24.7h1.1c1 0 1.9-.8 1.9-1.9v-1.1c0-1-.8-1.9-1.9-1.9h-1.1c-1 0-1.9.8-1.9 1.9v1.1c0 1 .9 1.9 1.9 1.9zm-.6-2.9c0-.3.3-.6.6-.6h1.1c.3 0 .6.3.6.6v1.1c0 .3-.3.6-.6.6h-1.1c-.3 0-.6-.3-.6-.6v-1.1zM24.5 24.7h1.1c1 0 1.9-.8 1.9-1.9v-1.1c0-1-.8-1.9-1.9-1.9h-1.1c-1 0-1.9.8-1.9 1.9v1.1c0 1 .8 1.9 1.9 1.9zm-.6-2.9c0-.3.3-.6.6-.6h1.1c.3 0 .6.3.6.6v1.1c0 .3-.3.6-.6.6h-1.1c-.3 0-.6-.3-.6-.6v-1.1zM30.2 24.7h1.1c1 0 1.9-.8 1.9-1.9v-1.1c0-1-.8-1.9-1.9-1.9h-1.1c-1 0-1.9.8-1.9 1.9v1.1c0 1 .8 1.9 1.9 1.9zm-.7-2.9c0-.3.3-.6.6-.6h1.1c.3 0 .6.3.6.6v1.1c0 .3-.3.6-.6.6h-1.1c-.3 0-.6-.3-.6-.6v-1.1zM36.9 19.9h-1.1c-1 0-1.9.8-1.9 1.9v1.1c0 1 .8 1.9 1.9 1.9h1.1c1 0 1.9-.8 1.9-1.9v-1.1c-.1-1.1-.9-1.9-1.9-1.9zm.6 2.9c0 .3-.3.6-.6.6h-1.1c-.3 0-.6-.3-.6-.6v-1.1c0-.3.3-.6.6-.6h1.1c.3 0 .6.3.6.6v1.1zM42.6 19.9h-1.1c-1 0-1.9.8-1.9 1.9v1.1c0 1 .8 1.9 1.9 1.9h1.1c1 0 1.9-.8 1.9-1.9v-1.1c-.1-1.1-.9-1.9-1.9-1.9zm.6 2.9c0 .3-.3.6-.6.6h-1.1c-.3 0-.6-.3-.6-.6v-1.1c0-.3.3-.6.6-.6h1.1c.3 0 .6.3.6.6v1.1zM8.5 27H7.4c-1 0-1.9.8-1.9 1.9V30c0 1 .8 1.9 1.9 1.9h1.1c1 0 1.9-.8 1.9-1.9v-1.1c-.1-1-.9-1.9-1.9-1.9zm.6 2.9c0 .3-.3.6-.6.6H7.4c-.3 0-.6-.3-.6-.6v-1.1c0-.3.3-.6.6-.6h1.1c.3 0 .6.3.6.6v1.1zM13.1 31.8h1.1c1 0 1.9-.8 1.9-1.9v-1.1c0-1-.8-1.9-1.9-1.9h-1.1c-1 0-1.9.8-1.9 1.9v1.1c.1 1.1.9 1.9 1.9 1.9zm-.6-2.9c0-.3.3-.6.6-.6h1.1c.3 0 .6.3.6.6V30c0 .3-.3.6-.6.6h-1.1c-.3 0-.6-.3-.6-.6v-1.1zM18.8 31.8h1.1c1 0 1.9-.8 1.9-1.9v-1.1c0-1-.8-1.9-1.9-1.9h-1.1c-1 0-1.9.8-1.9 1.9v1.1c0 1.1.9 1.9 1.9 1.9zm-.6-2.9c0-.3.3-.6.6-.6h1.1c.3 0 .6.3.6.6V30c0 .3-.3.6-.6.6h-1.1c-.3 0-.6-.3-.6-.6v-1.1zM24.5 31.8h1.1c1 0 1.9-.8 1.9-1.9v-1.1c0-1-.8-1.9-1.9-1.9h-1.1c-1 0-1.9.8-1.9 1.9v1.1c0 1.1.8 1.9 1.9 1.9zm-.6-2.9c0-.3.3-.6.6-.6h1.1c.3 0 .6.3.6.6V30c0 .3-.3.6-.6.6h-1.1c-.3 0-.6-.3-.6-.6v-1.1zM30.2 31.8h1.1c1 0 1.9-.8 1.9-1.9v-1.1c0-1-.8-1.9-1.9-1.9h-1.1c-1 0-1.9.8-1.9 1.9v1.1c0 1.1.8 1.9 1.9 1.9zm-.7-2.9c0-.3.3-.6.6-.6h1.1c.3 0 .6.3.6.6V30c0 .3-.3.6-.6.6h-1.1c-.3 0-.6-.3-.6-.6v-1.1zM36.9 27h-1.1c-1 0-1.9.8-1.9 1.9V30c0 1 .8 1.9 1.9 1.9h1.1c1 0 1.9-.8 1.9-1.9v-1.1c-.1-1-.9-1.9-1.9-1.9zm.6 2.9c0 .3-.3.6-.6.6h-1.1c-.3 0-.6-.3-.6-.6v-1.1c0-.3.3-.6.6-.6h1.1c.3 0 .6.3.6.6v1.1zM42.6 27h-1.1c-1 0-1.9.8-1.9 1.9V30c0 1 .8 1.9 1.9 1.9h1.1c1 0 1.9-.8 1.9-1.9v-1.1c-.1-1-.9-1.9-1.9-1.9zm.6 2.9c0 .3-.3.6-.6.6h-1.1c-.3 0-.6-.3-.6-.6v-1.1c0-.3.3-.6.6-.6h1.1c.3 0 .6.3.6.6v1.1z"/></svg>