<svg id="Calque_1" xmlns="http://www.w3.org/2000/svg" viewBox="0 0 50 50"><style>.st0{fill:#FF0844;}</style><path class="st0" d="M25 0c-.6 0-1 .4-1 1v5.6c0 .6.4 1 1 1s1-.4 1-1V1c0-.6-.4-1-1-1zM42.7 7.7c-.4-.4-1-.4-1.4 0l-3.7 3.7c-.4.4-.4 1 0 1.4.2.2.5.3.7.3s.5-.1.7-.3l3.7-3.7c.4-.4.4-1 0-1.4zM48.6 24.4h-4.8c-.6 0-1 .4-1 1s.4 1 1 1h4.8c.6 0 1-.4 1-1s-.4-1-1-1zM39 38c-.4-.4-1-.4-1.4 0-.4.4-.4 1 0 1.4l3.4 3.4c.2.2.5.3.7.3.3 0 .5-.1.7-.3.4-.4.4-1 0-1.4L39 38zM25 43.2c-.6 0-1 .4-1 1V49c0 .6.4 1 1 1s1-.4 1-1v-4.8c0-.6-.4-1-1-1zM11 38l-3.4 3.4c-.4.4-.4 1 0 1.4.2.2.5.2.8.2s.5-.1.7-.3l3.4-3.4c.4-.4.4-1 0-1.4-.5-.3-1.1-.3-1.5.1zM6.2 24.4H1.4c-.6 0-1 .4-1 1s.4 1 1 1h4.9c.6 0 1-.4 1-1s-.5-1-1.1-1zM8.7 7.7c-.4-.4-1-.4-1.4 0-.4.4-.4 1 0 1.4l3.8 3.8c.2.2.5.3.7.3.3 0 .5-.1.7-.3.4-.4.4-1 0-1.4L8.7 7.7z"/></svg>