<svg xmlns="http://www.w3.org/2000/svg">
  
  <symbol id="connected" viewBox="0 0 50 50">
    <title>connected</title>
    <g id="connected-g" fill="currentColor"><path d="M36.2 21.1H25.7v-3c1.3-.2 2.2-1.3 2.2-2.6 0-1.5-1.2-2.7-2.7-2.7-1.5 0-2.7 1.2-2.7 2.7 0 1.3 1 2.4 2.2 2.6v3H14.3c-1.9 0-3.5 1.6-3.5 3.5v21.9c0 1.9 1.6 3.5 3.5 3.5h21.8c1.9 0 3.5-1.5 3.6-3.5V24.6c0-2-1.5-3.5-3.5-3.5zm-12.7-5.6c0-.9.8-1.7 1.7-1.7s1.7.8 1.7 1.7-.8 1.7-1.7 1.7-1.7-.8-1.7-1.7zM36.1 49H14.3c-1.4 0-2.5-1.1-2.5-2.5V24.6c0-1.4 1.1-2.5 2.5-2.5h21.9c1.4 0 2.5 1.1 2.5 2.5v21.9c-.1 1.4-1.2 2.5-2.6 2.5zM16.1 4c.1 0 .2 0 .3-.1C18.9 2 21.9 1 25.1 1c3 0 6.1 1 8.6 2.8.2.2.5.1.7-.1.2-.2.1-.5-.1-.7-2.7-1.9-5.9-3-9.2-3-3.4 0-6.6 1.1-9.3 3.1-.2.2-.3.5-.1.7.1.1.2.2.4.2z"/><path d="M32.3 6.4c-2-1.6-4.6-2.5-7.2-2.5-2.8 0-5.4.9-7.4 2.6-.1.1-.2.3-.2.4 0 .1 0 .3.1.4.1.1.2.2.4.2.1 0 .2 0 .3-.1C20.1 5.8 22.6 5 25.1 5c2.4 0 4.7.8 6.6 2.3.2.2.5.1.7-.1.1-.1.1-.3.1-.4 0-.1-.1-.3-.2-.4zM19.9 10.7c-.2.2-.2.5 0 .7.1.1.2.1.4.1s.3 0 .4-.1c1.2-1.2 2.8-1.9 4.4-1.9 1.6 0 3 .6 4.2 1.7.2.2.5.2.7 0 .2-.2.2-.5 0-.7-1.4-1.3-3-1.9-4.8-1.9-2 0-3.9.8-5.3 2.1z"/></g>
  </symbol>
  
  <symbol id="mobile" viewBox="0 0 50 50">
    <title>mobile</title>
    <g id="mobile-g" fill="currentColor"><circle cx="25" cy="44.4" r="1.4"/><path d="M34.8 0H15.2c-2 0-3.6 1.6-3.6 3.6v42.9c0 2 1.6 3.6 3.6 3.6h19.5c2 0 3.6-1.6 3.6-3.6V3.6c0-2-1.6-3.6-3.5-3.6zM12.7 7h24.6v31.4H12.7V7zm2.5-6h19.5c1.4 0 2.6 1.1 2.6 2.6V6H12.7V3.6c0-1.4 1.1-2.6 2.5-2.6zm19.6 48H15.2c-1.4 0-2.6-1.1-2.6-2.6v-7h24.6v7c.1 1.4-1 2.6-2.4 2.6z"/><circle cx="25" cy="4.2" r=".7"/></g>
  </symbol>

  <symbol id="esport" viewBox="0 0 50 50">
    <title>E-sport</title>
    <g id="esport-g" fill="currentColor"><path d="M46.9 14.3H26.2v-.5c0-1.3 0-2.1-.3-2.9-1-2.1-3.5-2.1-3.6-2.1H11.7c-1.6 0-2.9-1.3-2.9-2.9 0-.3-.3-.6-.6-.6s-.6.3-.6.6c0 2.3 1.9 4.1 4.1 4.1h10.5s1.9.1 2.5 1.4c.2.5.2 1.2.2 2.3v.5H3.1c-1.7 0-3.1 1.4-3.1 3.1v24.2c0 1.7 1.4 3.1 3.1 3.1h43.8c1.7 0 3.1-1.4 3.1-3.1V17.4c0-1.7-1.4-3.1-3.1-3.1zm1.9 27.3c0 1-.8 1.9-1.9 1.9H3.1c-1 0-1.9-.8-1.9-1.9V17.4c0-1 .8-1.9 1.9-1.9h43.8c1 0 1.9.8 1.9 1.9v24.2z"/><path d="M36.6 35.2H13.2c-1 0-1.9.8-1.9 1.9v.5c0 1 .8 1.9 1.9 1.9h23.4c1 0 1.9-.8 1.9-1.9v-.5c0-1-.9-1.9-1.9-1.9zm.6 2.4c0 .3-.3.6-.6.6H13.2c-.3 0-.6-.3-.6-.6v-.5c0-.3.3-.6.6-.6h23.4c.3 0 .6.3.6.6v.5zM8.5 19.9H7.4c-1 0-1.9.8-1.9 1.9v1.1c0 1 .8 1.9 1.9 1.9h1.1c1 0 1.9-.8 1.9-1.9v-1.1c-.1-1.1-.9-1.9-1.9-1.9zm.6 2.9c0 .3-.3.6-.6.6H7.4c-.3 0-.6-.3-.6-.6v-1.1c0-.3.3-.6.6-.6h1.1c.3 0 .6.3.6.6v1.1zM13.1 24.7h1.1c1 0 1.9-.8 1.9-1.9v-1.1c0-1-.8-1.9-1.9-1.9h-1.1c-1 0-1.9.8-1.9 1.9v1.1c.1 1 .9 1.9 1.9 1.9zm-.6-2.9c0-.3.3-.6.6-.6h1.1c.3 0 .6.3.6.6v1.1c0 .3-.3.6-.6.6h-1.1c-.3 0-.6-.3-.6-.6v-1.1zM18.8 24.7h1.1c1 0 1.9-.8 1.9-1.9v-1.1c0-1-.8-1.9-1.9-1.9h-1.1c-1 0-1.9.8-1.9 1.9v1.1c0 1 .9 1.9 1.9 1.9zm-.6-2.9c0-.3.3-.6.6-.6h1.1c.3 0 .6.3.6.6v1.1c0 .3-.3.6-.6.6h-1.1c-.3 0-.6-.3-.6-.6v-1.1zM24.5 24.7h1.1c1 0 1.9-.8 1.9-1.9v-1.1c0-1-.8-1.9-1.9-1.9h-1.1c-1 0-1.9.8-1.9 1.9v1.1c0 1 .8 1.9 1.9 1.9zm-.6-2.9c0-.3.3-.6.6-.6h1.1c.3 0 .6.3.6.6v1.1c0 .3-.3.6-.6.6h-1.1c-.3 0-.6-.3-.6-.6v-1.1zM30.2 24.7h1.1c1 0 1.9-.8 1.9-1.9v-1.1c0-1-.8-1.9-1.9-1.9h-1.1c-1 0-1.9.8-1.9 1.9v1.1c0 1 .8 1.9 1.9 1.9zm-.7-2.9c0-.3.3-.6.6-.6h1.1c.3 0 .6.3.6.6v1.1c0 .3-.3.6-.6.6h-1.1c-.3 0-.6-.3-.6-.6v-1.1zM36.9 19.9h-1.1c-1 0-1.9.8-1.9 1.9v1.1c0 1 .8 1.9 1.9 1.9h1.1c1 0 1.9-.8 1.9-1.9v-1.1c-.1-1.1-.9-1.9-1.9-1.9zm.6 2.9c0 .3-.3.6-.6.6h-1.1c-.3 0-.6-.3-.6-.6v-1.1c0-.3.3-.6.6-.6h1.1c.3 0 .6.3.6.6v1.1zM42.6 19.9h-1.1c-1 0-1.9.8-1.9 1.9v1.1c0 1 .8 1.9 1.9 1.9h1.1c1 0 1.9-.8 1.9-1.9v-1.1c-.1-1.1-.9-1.9-1.9-1.9zm.6 2.9c0 .3-.3.6-.6.6h-1.1c-.3 0-.6-.3-.6-.6v-1.1c0-.3.3-.6.6-.6h1.1c.3 0 .6.3.6.6v1.1zM8.5 27H7.4c-1 0-1.9.8-1.9 1.9V30c0 1 .8 1.9 1.9 1.9h1.1c1 0 1.9-.8 1.9-1.9v-1.1c-.1-1-.9-1.9-1.9-1.9zm.6 2.9c0 .3-.3.6-.6.6H7.4c-.3 0-.6-.3-.6-.6v-1.1c0-.3.3-.6.6-.6h1.1c.3 0 .6.3.6.6v1.1zM13.1 31.8h1.1c1 0 1.9-.8 1.9-1.9v-1.1c0-1-.8-1.9-1.9-1.9h-1.1c-1 0-1.9.8-1.9 1.9v1.1c.1 1.1.9 1.9 1.9 1.9zm-.6-2.9c0-.3.3-.6.6-.6h1.1c.3 0 .6.3.6.6V30c0 .3-.3.6-.6.6h-1.1c-.3 0-.6-.3-.6-.6v-1.1zM18.8 31.8h1.1c1 0 1.9-.8 1.9-1.9v-1.1c0-1-.8-1.9-1.9-1.9h-1.1c-1 0-1.9.8-1.9 1.9v1.1c0 1.1.9 1.9 1.9 1.9zm-.6-2.9c0-.3.3-.6.6-.6h1.1c.3 0 .6.3.6.6V30c0 .3-.3.6-.6.6h-1.1c-.3 0-.6-.3-.6-.6v-1.1zM24.5 31.8h1.1c1 0 1.9-.8 1.9-1.9v-1.1c0-1-.8-1.9-1.9-1.9h-1.1c-1 0-1.9.8-1.9 1.9v1.1c0 1.1.8 1.9 1.9 1.9zm-.6-2.9c0-.3.3-.6.6-.6h1.1c.3 0 .6.3.6.6V30c0 .3-.3.6-.6.6h-1.1c-.3 0-.6-.3-.6-.6v-1.1zM30.2 31.8h1.1c1 0 1.9-.8 1.9-1.9v-1.1c0-1-.8-1.9-1.9-1.9h-1.1c-1 0-1.9.8-1.9 1.9v1.1c0 1.1.8 1.9 1.9 1.9zm-.7-2.9c0-.3.3-.6.6-.6h1.1c.3 0 .6.3.6.6V30c0 .3-.3.6-.6.6h-1.1c-.3 0-.6-.3-.6-.6v-1.1zM36.9 27h-1.1c-1 0-1.9.8-1.9 1.9V30c0 1 .8 1.9 1.9 1.9h1.1c1 0 1.9-.8 1.9-1.9v-1.1c-.1-1-.9-1.9-1.9-1.9zm.6 2.9c0 .3-.3.6-.6.6h-1.1c-.3 0-.6-.3-.6-.6v-1.1c0-.3.3-.6.6-.6h1.1c.3 0 .6.3.6.6v1.1zM42.6 27h-1.1c-1 0-1.9.8-1.9 1.9V30c0 1 .8 1.9 1.9 1.9h1.1c1 0 1.9-.8 1.9-1.9v-1.1c-.1-1-.9-1.9-1.9-1.9zm.6 2.9c0 .3-.3.6-.6.6h-1.1c-.3 0-.6-.3-.6-.6v-1.1c0-.3.3-.6.6-.6h1.1c.3 0 .6.3.6.6v1.1z"/></g>
  </symbol>

  <symbol id="vr" viewBox="0 0 50 50">
    <title>VR</title>
    <g id="vr-g" fill="currentColor"><path d="M48 20.5c-.4-3.6-3.6-6.4-7.2-6.4h-5.4c-.5-1.1-1.4-2.2-3.4-2.2H18.1c-1.9 0-2.7.9-3.4 2.2H9.2c-3.7 0-6.8 2.8-7.2 6.4-.9.6-2 1.4-2 3.2v3.1c0 1.7 1 2.4 1.9 3l.1.1c0 3.9 3.1 8.2 7.3 8.2h31.5c4.1 0 7.2-4.3 7.3-8.2l.1-.1c.8-.6 1.9-1.3 1.9-3v-3.1c-.1-1.7-1.2-2.6-2.1-3.2zm-.5.3zm1.4 6c0 1.1-.6 1.6-1.4 2.1l-.3.2c-.2.2-.2.3-.2.5v.2c0 3.3-2.7 7.2-6.2 7.2H9.2C5.7 37 3 33.1 3 29.8v-.2c0-.2-.1-.3-.2-.4l-.3-.2c-.8-.6-1.4-1-1.4-2.1v-3.1c0-1.3.8-1.8 1.7-2.4.2-.2.2-.3.3-.5.3-3.2 3-5.7 6.2-5.7H15c.2 0 .4-.1.5-.3.6-1.3 1.1-1.9 2.6-1.9H32c1.5 0 2.1.7 2.6 1.9.1.2.3.3.5.3h5.8c3.2 0 5.9 2.5 6.2 5.7 0 .2.1.3.2.4.9.6 1.7 1.1 1.7 2.4v3.1z"/><path d="M40.1 16.9H9.9c-1.6 0-2.8 1.3-2.8 2.9v12.1c0 1.6 1.3 2.9 2.8 2.9H16c2 0 3.5-1.4 4.9-2.8 1.3-1.3 2.5-2.5 4.1-2.5.5 0 .9.1 1.4.3.9.4 1.8 1.3 2.6 2.1 1.3 1.3 2.8 2.8 5 2.8h6.2c1.6 0 2.8-1.3 2.8-2.9v-12c0-1.6-1.3-2.9-2.9-2.9zm1.8 14.9c0 1-.8 1.8-1.8 1.8H34c-1.7 0-2.9-1.2-4.2-2.5-.9-.9-1.8-1.8-2.9-2.3-.6-.3-1.2-.4-1.8-.4-2 0-3.5 1.5-4.9 2.8-1.4 1.3-2.5 2.5-4.1 2.5H9.9c-1 0-1.8-.8-1.8-1.8V19.8c0-1 .8-1.8 1.8-1.8h30.3c1 0 1.8.8 1.8 1.8v12zM3.2 22.2c-.3 0-.5.2-.5.5v4.9c0 .3.2.5.5.5s.5-.2.5-.5v-4.9c0-.2-.2-.5-.5-.5zM46.8 22.2c-.3 0-.5.2-.5.5v4.9c0 .3.2.5.5.5s.5-.2.5-.5v-4.9c0-.2-.2-.5-.5-.5z"/></g>
  </symbol>

  <symbol id="interactive" viewBox="0 0 50 50">
    <title>Interactive</title>
    <g id="interactive-g" fill="currentColor"><path d="M25 0c-.6 0-1 .4-1 1v5.6c0 .6.4 1 1 1s1-.4 1-1V1c0-.6-.4-1-1-1zM42.7 7.7c-.4-.4-1-.4-1.4 0l-3.7 3.7c-.4.4-.4 1 0 1.4.2.2.5.3.7.3s.5-.1.7-.3l3.7-3.7c.4-.4.4-1 0-1.4zM48.6 24.4h-4.8c-.6 0-1 .4-1 1s.4 1 1 1h4.8c.6 0 1-.4 1-1s-.4-1-1-1zM39 38c-.4-.4-1-.4-1.4 0-.4.4-.4 1 0 1.4l3.4 3.4c.2.2.5.3.7.3.3 0 .5-.1.7-.3.4-.4.4-1 0-1.4L39 38zM25 43.2c-.6 0-1 .4-1 1V49c0 .6.4 1 1 1s1-.4 1-1v-4.8c0-.6-.4-1-1-1zM11 38l-3.4 3.4c-.4.4-.4 1 0 1.4.2.2.5.2.8.2s.5-.1.7-.3l3.4-3.4c.4-.4.4-1 0-1.4-.5-.3-1.1-.3-1.5.1zM6.2 24.4H1.4c-.6 0-1 .4-1 1s.4 1 1 1h4.9c.6 0 1-.4 1-1s-.5-1-1.1-1zM8.7 7.7c-.4-.4-1-.4-1.4 0-.4.4-.4 1 0 1.4l3.8 3.8c.2.2.5.3.7.3.3 0 .5-.1.7-.3.4-.4.4-1 0-1.4L8.7 7.7z"/></g>
  </symbol>
  
</svg>