<svg id="Calque_1" xmlns="http://www.w3.org/2000/svg" viewBox="0 0 50 50"><style>.st0{fill:#FF0844;}</style><path class="st0" d="M48 20.5c-.4-3.6-3.6-6.4-7.2-6.4h-5.4c-.5-1.1-1.4-2.2-3.4-2.2H18.1c-1.9 0-2.7.9-3.4 2.2H9.2c-3.7 0-6.8 2.8-7.2 6.4-.9.6-2 1.4-2 3.2v3.1c0 1.7 1 2.4 1.9 3l.1.1c0 3.9 3.1 8.2 7.3 8.2h31.5c4.1 0 7.2-4.3 7.3-8.2l.1-.1c.8-.6 1.9-1.3 1.9-3v-3.1c-.1-1.7-1.2-2.6-2.1-3.2zm-.5.3zm1.4 6c0 1.1-.6 1.6-1.4 2.1l-.3.2c-.2.2-.2.3-.2.5v.2c0 3.3-2.7 7.2-6.2 7.2H9.2C5.7 37 3 33.1 3 29.8v-.2c0-.2-.1-.3-.2-.4l-.3-.2c-.8-.6-1.4-1-1.4-2.1v-3.1c0-1.3.8-1.8 1.7-2.4.2-.2.2-.3.3-.5.3-3.2 3-5.7 6.2-5.7H15c.2 0 .4-.1.5-.3.6-1.3 1.1-1.9 2.6-1.9H32c1.5 0 2.1.7 2.6 1.9.1.2.3.3.5.3h5.8c3.2 0 5.9 2.5 6.2 5.7 0 .2.1.3.2.4.9.6 1.7 1.1 1.7 2.4v3.1z"/><path class="st0" d="M40.1 16.9H9.9c-1.6 0-2.8 1.3-2.8 2.9v12.1c0 1.6 1.3 2.9 2.8 2.9H16c2 0 3.5-1.4 4.9-2.8 1.3-1.3 2.5-2.5 4.1-2.5.5 0 .9.1 1.4.3.9.4 1.8 1.3 2.6 2.1 1.3 1.3 2.8 2.8 5 2.8h6.2c1.6 0 2.8-1.3 2.8-2.9v-12c0-1.6-1.3-2.9-2.9-2.9zm1.8 14.9c0 1-.8 1.8-1.8 1.8H34c-1.7 0-2.9-1.2-4.2-2.5-.9-.9-1.8-1.8-2.9-2.3-.6-.3-1.2-.4-1.8-.4-2 0-3.5 1.5-4.9 2.8-1.4 1.3-2.5 2.5-4.1 2.5H9.9c-1 0-1.8-.8-1.8-1.8V19.8c0-1 .8-1.8 1.8-1.8h30.3c1 0 1.8.8 1.8 1.8v12zM3.2 22.2c-.3 0-.5.2-.5.5v4.9c0 .3.2.5.5.5s.5-.2.5-.5v-4.9c0-.2-.2-.5-.5-.5zM46.8 22.2c-.3 0-.5.2-.5.5v4.9c0 .3.2.5.5.5s.5-.2.5-.5v-4.9c0-.2-.2-.5-.5-.5z"/></svg>